<svg width="24" height="24" viewBox="0 0 24 24" fill="none" xmlns="http://www.w3.org/2000/svg">
<path fill-rule="evenodd" clip-rule="evenodd" d="M10.9721 20.2157L12 18.5L13.0536 20.2C12.4174 20.5943 11.6142 20.6003 10.9721 20.2157ZM10.4922 6.50745C9.71917 5.98243 8.70926 5.5 7.60808 5.5C5.08273 5.5 3.60046 7.35714 4.09455 9.90625C4.94048 14.2706 12 18.5 12 18.5C10.9721 20.2157 10.9725 20.2159 10.9721 20.2157L10.9681 20.2133L10.9616 20.2093L10.9408 20.1967C10.9237 20.1863 10.8999 20.1718 10.87 20.1533C10.8102 20.1164 10.7256 20.0636 10.6195 19.996C10.4075 19.8607 10.1087 19.6655 9.74967 19.4184C9.03429 18.9259 8.06604 18.2178 7.06315 17.3585C6.0659 16.5039 4.99626 15.4675 4.1042 14.3133C3.22465 13.1752 2.42529 11.8047 2.13109 10.2868C1.79541 8.55495 2.09718 6.8269 3.15547 5.50009C4.22058 4.16473 5.84213 3.5 7.60808 3.5C9.43175 3.5 10.9477 4.35898 11.8881 5.04462C11.926 5.07223 11.9633 5.09983 12 5.12737C12.0367 5.09983 12.074 5.07223 12.1119 5.04462C13.0523 4.35898 14.5683 3.5 16.3919 3.5C20.337 3.5 22.6129 7.15474 21.8515 10.3675C21.5024 11.8405 20.6936 13.1821 19.8124 14.3083C18.9189 15.4501 17.8629 16.4815 16.8803 17.336C15.8928 18.1949 14.945 18.9046 14.2456 19.3991C13.8947 19.6473 13.6033 19.8434 13.3967 19.9793C13.2933 20.0473 13.2109 20.1003 13.1527 20.1374C13.138 20.1468 13.1248 20.1552 13.1132 20.1625C13.1019 20.1697 13.0922 20.1759 13.0839 20.181L13.0638 20.1936L13.0575 20.1976L13.0536 20.2C13.0532 20.2002 13.0536 20.2 12 18.5C12 18.5 18.8792 14.2363 19.9054 9.90625C20.3995 7.82142 18.9173 5.5 16.3919 5.5C15.2907 5.5 14.2808 5.98243 13.5078 6.50745C12.5852 7.13411 12 7.82143 12 7.82143C12 7.82143 11.4148 7.13411 10.4922 6.50745Z" fill="black"/>
</svg>
