<svg width="24" height="24" viewBox="0 0 24 24" fill="none" xmlns="http://www.w3.org/2000/svg">
<path fill-rule="evenodd" clip-rule="evenodd" d="M4.66153 7.27214L2.55469 10.224C1.7657 11.3295 1.82345 12.8194 2.69569 13.8621L5.24547 16.9102C5.8228 17.6004 6.68215 18 7.58886 18L18.9609 18C20.6394 18 22 16.6569 22 15V9C22 7.34315 20.6394 6 18.9609 6H7.14592C6.15749 6 5.23081 6.47451 4.66153 7.27214ZM4.25795 12.5886C3.9672 12.2411 3.94795 11.7444 4.21095 11.376L6.31779 8.42405C6.50755 8.15817 6.81644 8 7.14592 8L18.9609 8C19.5204 8 19.974 8.44772 19.974 9V15C19.974 15.5523 19.5204 16 18.9609 16L7.58886 16C7.28662 16 7.00017 15.8668 6.80772 15.6367L4.25795 12.5886ZM7.81765 13C8.37713 13 8.83068 12.5523 8.83068 12C8.83068 11.4477 8.37713 11 7.81765 11C7.25817 11 6.80463 11.4477 6.80463 12C6.80463 12.5523 7.25817 13 7.81765 13Z" fill="black"/>
</svg>
